<?xml version="1.0" standalone="no"?>
<!DOCTYPE svg PUBLIC "-//W3C//DTD SVG 20010904//EN"
 "http://www.w3.org/TR/2001/REC-SVG-20010904/DTD/svg10.dtd">
<svg version="1.0" xmlns="http://www.w3.org/2000/svg"
 width="500.000000pt" height="500.000000pt" viewBox="0 0 500.000000 500.000000"
 preserveAspectRatio="xMidYMid meet">

<g transform="translate(0.000000,500.000000) scale(0.100000,-0.100000)"
fill="#000000" stroke="none">
<path d="M2435 4311 c-16 -5 -77 -11 -135 -14 -101 -5 -283 -44 -382 -83 -21
-7 -38 -11 -38 -7 0 3 -8 -1 -17 -9 -10 -8 -38 -23 -63 -32 -25 -9 -82 -39
-126 -67 -45 -27 -86 -49 -91 -49 -17 0 -55 -47 -44 -55 6 -3 8 -11 5 -17 -4
-6 2 -5 15 2 12 6 19 14 17 19 -3 4 12 13 32 21 20 7 43 22 51 32 7 11 19 17
26 14 8 -3 19 2 25 10 7 8 22 14 33 14 11 0 62 22 112 49 60 33 99 48 113 44
13 -3 33 4 54 20 41 32 123 67 151 66 14 0 -4 -13 -48 -34 l-70 -34 45 0 c25
0 52 4 60 10 12 8 9 9 -10 5 -14 -3 -8 2 15 13 52 24 120 37 110 21 -5 -9 -1
-10 13 -6 12 4 59 8 105 9 81 2 83 2 79 24 -4 20 0 23 27 23 17 0 31 -4 31 -9
0 -5 9 -7 20 -4 11 3 28 2 37 -1 15 -6 15 -8 3 -16 -18 -11 -16 -11 145 -14
109 -2 211 -25 322 -71 19 -8 50 -15 67 -15 37 0 124 -27 146 -45 8 -7 47 -25
85 -40 80 -31 132 -65 116 -74 -12 -8 116 -104 141 -106 23 -2 125 -81 133
-102 3 -10 22 -25 41 -35 33 -15 31 -12 -28 48 -34 35 -72 67 -83 71 -25 8
-80 48 -125 92 -108 106 -392 229 -730 317 -73 19 -336 29 -385 15z"/>
<path d="M1910 4150 c-8 -5 -10 -10 -5 -10 6 0 17 5 25 10 8 5 11 10 5 10 -5
0 -17 -5 -25 -10z"/>
<path d="M2396 4031 c-3 -5 -3 -63 1 -130 l6 -121 36 0 c20 0 47 7 60 16 22
16 23 21 19 116 -2 85 -6 102 -22 114 -22 16 -92 19 -100 5z m82 -123 c3 -81
1 -88 -16 -88 -16 0 -20 10 -25 68 -11 109 -10 114 16 110 21 -3 22 -8 25 -90z"/>
<path d="M2617 3993 c-3 -21 -9 -77 -13 -124 l-7 -86 49 -7 c33 -4 50 -2 55 6
12 19 1 28 -32 28 -29 0 -30 2 -27 38 3 34 6 37 31 35 21 -1 27 3 27 18 0 14
-7 19 -25 19 -22 0 -25 4 -25 35 0 34 1 35 40 35 28 0 40 4 40 14 0 18 -22 26
-70 26 -36 0 -38 -2 -43 -37z"/>
<path d="M1415 3935 c-186 -151 -306 -271 -378 -375 -17 -25 -34 -47 -37 -50
-11 -9 -70 -98 -70 -106 0 -4 -9 -18 -21 -30 -11 -12 -22 -38 -24 -56 -2 -19
-21 -73 -44 -119 -51 -107 -120 -378 -126 -498 -2 -31 -9 -99 -15 -151 -18
-146 -18 -197 2 -295 10 -49 25 -123 33 -162 8 -40 30 -113 49 -162 20 -49 36
-94 36 -100 0 -20 139 -294 168 -331 15 -19 36 -48 46 -65 21 -32 89 -111 201
-232 83 -89 252 -228 310 -254 22 -10 53 -19 68 -19 17 0 37 -10 51 -25 66
-71 441 -202 601 -209 33 -2 110 -7 170 -11 182 -12 500 35 629 93 22 10 64
24 91 31 99 23 401 190 474 262 20 20 43 40 52 45 39 22 243 252 306 346 91
134 181 296 198 356 7 26 23 74 34 106 28 80 27 99 -4 61 -13 -16 -24 -33 -25
-37 0 -13 -88 -209 -122 -273 -17 -33 -51 -89 -76 -125 -25 -36 -64 -91 -86
-124 -44 -64 -190 -220 -223 -239 -11 -7 -53 -40 -93 -73 -144 -121 -402 -264
-545 -301 -22 -6 -65 -20 -95 -31 -30 -11 -84 -22 -120 -25 -36 -3 -79 -13
-95 -22 -25 -13 -54 -14 -165 -10 -74 3 -151 8 -170 10 -27 4 -30 2 -15 -5 16
-7 10 -9 -25 -9 -25 0 -56 6 -70 14 -14 8 -37 14 -51 15 -15 0 -43 7 -62 15
-20 8 -53 15 -74 15 -21 0 -55 9 -76 20 -20 11 -44 20 -52 20 -9 0 -34 9 -55
20 -22 11 -43 19 -47 18 -13 -2 -66 14 -88 28 -11 6 -34 15 -52 19 -17 3 -34
12 -36 20 -3 7 -40 29 -82 50 -42 20 -79 43 -82 51 -3 8 -23 24 -45 35 -80 41
-397 373 -421 442 -4 10 -11 16 -16 13 -4 -3 -17 11 -27 32 -10 20 -31 56 -47
79 -15 23 -27 49 -27 58 0 15 -29 77 -92 199 -12 21 -24 53 -28 70 -5 17 -19
70 -33 117 -15 48 -23 96 -20 109 3 13 2 21 -3 17 -5 -3 -8 18 -6 49 3 35 0
54 -7 54 -14 0 -14 230 1 420 9 118 27 211 58 285 13 32 50 194 50 218 0 13 7
32 16 43 15 19 16 19 9 -1 -20 -56 -13 -54 26 10 24 39 55 97 68 130 36 90 75
154 79 131 3 -14 14 -2 43 43 42 67 118 146 254 265 166 145 206 219 50 91z"/>
<path d="M2076 3982 c-3 -5 -1 -54 4 -108 5 -55 10 -109 10 -122 0 -17 5 -22
18 -20 11 2 16 11 14 25 -5 34 36 42 59 12 14 -19 21 -21 30 -12 9 9 1 36 -34
120 -39 93 -49 108 -70 111 -14 2 -28 -1 -31 -6z m74 -148 c0 -8 -6 -14 -14
-14 -14 0 -26 42 -26 89 0 22 3 20 20 -18 11 -24 20 -49 20 -57z"/>
<path d="M2955 3958 c-11 -29 -75 -222 -75 -226 0 -2 7 -2 17 0 10 2 25 28 40
68 l23 65 -5 -50 c-3 -27 -8 -62 -11 -77 -5 -23 -2 -28 15 -28 15 0 30 17 55
68 41 78 44 77 16 -3 -24 -69 -25 -81 -6 -88 11 -4 25 24 55 114 l40 120 -26
10 c-14 5 -27 8 -28 7 -2 -2 -19 -36 -39 -75 -20 -40 -38 -73 -40 -73 -2 0 3
37 11 82 12 67 12 83 1 89 -19 13 -38 11 -43 -3z"/>
<path d="M1485 3940 c-3 -6 1 -7 9 -4 18 7 21 14 7 14 -6 0 -13 -4 -16 -10z"/>
<path d="M1868 3913 c-21 -8 -38 -18 -38 -22 0 -4 16 -47 36 -97 20 -49 40
-99 45 -111 8 -21 9 -21 49 -6 23 9 45 24 51 34 13 24 -45 184 -74 204 -25 18
-22 18 -69 -2z m80 -100 c22 -56 27 -82 20 -90 -6 -7 -14 -13 -18 -13 -12 0
-73 158 -65 169 16 27 35 6 63 -66z"/>
<path d="M3172 3759 c-59 -82 -69 -101 -56 -106 10 -4 22 1 30 11 19 26 56 4
52 -32 -2 -17 2 -27 13 -30 12 -2 24 25 52 115 35 110 36 119 20 131 -9 6 -22
12 -27 12 -6 0 -44 -46 -84 -101z m61 -17 c-18 -55 -20 -57 -42 -43 -11 7 -7
18 19 55 18 25 35 45 36 43 2 -2 -4 -26 -13 -55z"/>
<path d="M1710 3840 c-11 -7 -7 -21 19 -72 l34 -63 -55 53 c-48 47 -56 51 -72
39 -18 -13 -16 -19 39 -118 69 -124 61 -113 80 -105 14 5 10 18 -26 83 l-42
78 65 -63 c46 -45 69 -61 81 -56 9 3 17 7 17 9 0 1 -28 52 -63 113 -48 83 -66
109 -77 102z"/>
<path d="M3405 3760 c-4 -6 -1 -18 6 -26 10 -12 2 -30 -49 -104 -53 -79 -58
-91 -43 -99 14 -8 23 0 51 41 82 121 90 130 105 118 14 -12 35 -6 35 9 0 8
-83 71 -94 71 -2 0 -8 -5 -11 -10z"/>
<path d="M3821 3724 c6 -7 16 -11 21 -8 11 7 3 17 -18 20 -12 2 -13 -1 -3 -12z"/>
<path d="M1483 3695 l-42 -32 75 -102 76 -101 43 31 c27 19 41 37 38 45 -7 18
-10 18 -42 -6 l-28 -19 -22 30 -22 30 20 17 c14 12 18 21 12 31 -7 11 -12 11
-31 -2 -22 -15 -24 -14 -41 8 -24 29 -24 37 1 53 20 12 27 37 13 45 -5 3 -27
-10 -50 -28z"/>
<path d="M2320 3649 c-281 -42 -568 -213 -739 -440 -76 -100 -105 -149 -151
-258 -130 -300 -123 -660 18 -956 62 -129 115 -207 206 -303 247 -261 630
-404 972 -362 463 56 840 359 984 790 74 219 79 473 14 699 -124 428 -480 750
-914 826 -91 16 -297 18 -390 4z m407 -35 c217 -41 418 -149 578 -309 165
-165 268 -355 317 -585 25 -116 27 -316 4 -436 -110 -598 -682 -1009 -1283
-920 -380 56 -692 284 -863 630 -217 441 -128 963 224 1311 271 269 644 382
1023 309z"/>
<path d="M3049 3290 c-42 -12 -72 -36 -112 -88 -21 -28 -51 -55 -67 -62 -34
-14 -66 -61 -73 -107 -6 -36 -29 -72 -96 -150 l-45 -53 -190 0 c-383 -1 -556
-48 -556 -151 0 -49 24 -76 101 -113 51 -25 65 -37 71 -61 12 -43 -7 -115 -58
-222 -72 -152 -79 -218 -34 -306 38 -74 143 -168 250 -222 27 -14 13 5 -67 87
-89 93 -104 112 -118 163 -22 74 -15 124 35 265 72 201 64 270 -38 338 -66 44
-81 65 -66 90 34 55 203 78 519 68 116 -4 230 -9 255 -12 56 -7 92 14 74 43
-6 10 -20 19 -30 21 -67 10 -66 6 -18 79 24 37 44 71 44 75 0 4 13 14 30 23
33 17 71 82 68 117 -3 35 48 103 108 144 67 47 69 51 13 34z"/>
<path d="M3888 3624 c11 -17 29 -37 38 -45 16 -13 16 -12 7 6 -6 11 -24 31
-39 45 l-28 25 22 -31z"/>
<path d="M3534 3582 c-28 -31 -65 -73 -82 -93 l-31 -36 40 -33 c30 -23 44 -29
52 -21 8 8 4 18 -13 36 l-23 25 23 25 c21 22 25 23 43 10 16 -11 24 -12 35 -3
11 10 10 15 -10 29 l-23 18 26 26 25 26 28 -22 c23 -18 30 -20 37 -8 7 10 -1
23 -28 46 -21 18 -40 33 -43 33 -3 0 -28 -26 -56 -58z"/>
<path d="M3943 3575 c0 -14 3 -28 8 -31 5 -3 9 6 9 20 0 14 -4 27 -9 30 -5 3
-8 -6 -8 -19z"/>
<path d="M1343 3579 c-9 -9 10 -35 75 -105 74 -80 89 -92 101 -80 12 13 2 27
-70 105 -46 50 -86 91 -89 91 -4 0 -11 -5 -17 -11z"/>
<path d="M1226 3454 c-27 -33 -35 -49 -28 -56 8 -8 16 -7 27 2 16 13 14 14
142 -95 37 -31 43 -34 51 -19 8 14 -6 30 -69 86 -44 39 -79 73 -79 77 0 4 5
12 10 17 8 8 7 14 -3 22 -10 9 -21 2 -51 -34z"/>
<path d="M3701 3461 c-18 -14 -26 -33 -32 -76 -9 -64 -31 -97 -51 -77 -9 9
-10 17 -1 31 16 25 0 49 -21 32 -56 -46 1 -128 66 -95 28 14 48 63 48 115 0
28 16 49 38 49 11 0 13 -8 9 -30 -8 -35 11 -51 30 -25 19 26 16 52 -7 75 -25
25 -48 25 -79 1z"/>
<path d="M4036 3445 c4 -8 10 -15 15 -15 4 0 6 7 3 15 -4 8 -10 15 -15 15 -4
0 -6 -7 -3 -15z"/>
<path d="M3262 1404 c-48 -33 -20 -94 51 -108 15 -3 38 -8 52 -11 17 -4 25
-12 25 -25 0 -21 -24 -27 -36 -9 -4 7 -9 8 -17 0 -14 -14 10 -41 38 -41 25 0
55 29 55 52 0 33 -34 58 -88 67 -29 4 -58 13 -64 19 -14 14 0 34 20 28 10 -3
23 -2 31 3 10 7 8 12 -10 25 -29 20 -29 20 -57 0z"/>
<path d="M1670 1390 c-11 -11 -20 -29 -20 -40 0 -11 -6 -20 -13 -20 -7 0 -26
-13 -41 -29 -34 -35 -33 -74 2 -79 12 -2 20 -8 17 -13 -4 -5 0 -12 8 -15 15
-6 98 69 110 99 7 19 -18 43 -28 27 -8 -13 -25 -3 -25 15 0 7 7 21 16 30 15
15 18 15 35 -1 15 -14 22 -15 32 -5 9 9 7 16 -13 31 -32 25 -55 25 -80 0z m3
-97 c9 -9 -33 -53 -50 -53 -18 0 -16 20 4 42 17 19 35 23 46 11z"/>
<path d="M3123 1305 c-34 -24 -28 -54 25 -131 51 -74 79 -89 113 -58 29 26 23
52 -29 129 -50 75 -72 86 -109 60z m87 -91 c24 -38 35 -65 30 -74 -4 -7 -13
-9 -19 -6 -17 11 -81 114 -81 132 0 31 32 8 70 -52z"/>
<path d="M1865 1169 c-52 -71 -64 -93 -54 -100 9 -6 18 -3 26 7 18 25 55 9 47
-20 -4 -16 0 -25 10 -29 11 -5 23 18 50 101 34 99 35 108 19 120 -9 6 -20 12
-24 12 -4 0 -38 -41 -74 -91z m54 -10 c-14 -42 -24 -53 -38 -45 -7 5 -1 21 16
47 30 46 38 46 22 -2z"/>
<path d="M3010 1240 c-12 -8 -7 -25 35 -110 44 -90 65 -115 78 -92 3 4 -18 53
-47 109 -41 82 -54 101 -66 93z"/>
<path d="M2052 1178 c-5 -7 -21 -48 -36 -91 -30 -86 -26 -110 20 -121 29 -8
58 12 67 45 8 28 -14 36 -31 11 -16 -24 -42 -30 -42 -9 1 33 49 142 65 145 13
3 16 -2 13 -24 -2 -20 2 -30 13 -32 22 -4 30 42 12 68 -16 23 -65 27 -81 8z"/>
<path d="M2861 1179 c-12 -5 -21 -15 -19 -22 3 -6 20 -54 38 -104 25 -71 37
-93 51 -93 17 0 17 3 4 41 -19 52 -19 59 1 59 9 0 22 -17 31 -40 15 -37 31
-49 45 -34 7 7 -19 73 -37 94 -7 8 -10 20 -8 27 2 6 -3 27 -11 47 -12 30 -20
36 -43 35 -15 0 -39 -5 -52 -10z m67 -48 c11 -30 7 -41 -12 -41 -13 0 -37 56
-28 64 13 14 31 4 40 -23z"/>
<path d="M2222 1141 c-17 -11 -55 -167 -46 -193 8 -26 50 -41 75 -28 25 14 36
59 18 71 -10 6 -16 2 -19 -14 -8 -29 -40 -36 -40 -8 0 30 22 124 33 138 13 18
27 6 27 -23 0 -15 6 -24 15 -24 8 0 15 4 15 9 0 5 3 16 6 24 7 19 -29 57 -53
57 -10 0 -24 -4 -31 -9z"/>
<path d="M2708 1139 c-22 -12 -23 -50 -3 -139 14 -69 36 -94 69 -84 33 10 46
25 46 50 0 34 -30 157 -42 171 -12 15 -46 16 -70 2z m63 -100 c18 -76 17 -89
-6 -89 -15 0 -51 143 -40 160 15 24 30 0 46 -71z"/>
<path d="M2365 1020 c-4 -61 -5 -114 -1 -117 11 -11 89 -8 93 3 2 7 -12 15
-32 18 -27 5 -35 11 -31 22 3 9 6 24 6 33 0 14 6 17 26 13 21 -4 25 -1 22 14
-2 11 -13 20 -26 22 -17 3 -22 10 -22 33 0 27 3 29 35 29 24 0 35 5 35 15 0 8
-8 15 -19 15 -10 0 -32 3 -49 6 l-30 6 -7 -112z"/>
<path d="M2553 1120 c-18 -7 -23 -17 -23 -48 0 -30 7 -45 35 -72 20 -19 35
-44 35 -57 0 -28 -26 -31 -33 -3 -6 22 -37 28 -37 7 0 -46 62 -73 94 -41 27
26 19 61 -24 108 -22 24 -40 51 -40 60 0 20 29 21 36 1 4 -8 12 -15 20 -15 22
0 16 37 -8 54 -25 18 -25 18 -55 6z"/>
<path d="M2668 733 c7 -3 16 -2 19 1 4 3 -2 6 -13 5 -11 0 -14 -3 -6 -6z"/>
</g>
</svg>
